<?xml version="1.0" standalone="no"?>
<!DOCTYPE svg PUBLIC "-//W3C//DTD SVG 20010904//EN"
 "http://www.w3.org/TR/2001/REC-SVG-20010904/DTD/svg10.dtd">
<svg version="1.0" xmlns="http://www.w3.org/2000/svg"
 width="807.000000pt" height="699.000000pt" viewBox="0 0 807.000000 699.000000"
 preserveAspectRatio="xMidYMid meet">

<g transform="translate(0.000000,699.000000) scale(0.100000,-0.100000)"
fill="#fff" stroke="none">
<path d="M3925 6546 c-102 -52 -197 -103 -212 -113 -47 -32 -258 -132 -397
-188 -72 -30 -207 -88 -300 -129 -92 -42 -171 -76 -175 -76 -3 0 -14 27 -24
59 -54 172 -185 261 -382 261 -89 0 -197 -29 -252 -67 -46 -33 -127 -71 -166
-78 -51 -10 -118 17 -151 59 -50 66 -117 68 -156 4 -24 -40 -26 -116 -5 -158
9 -17 13 -30 10 -30 -10 0 -45 80 -45 105 0 14 -11 37 -25 50 -45 46 -128 27
-161 -36 -13 -27 -19 -29 -72 -29 -31 0 -90 -10 -131 -22 -58 -17 -84 -31
-122 -67 -27 -25 -50 -53 -51 -61 -3 -15 1 -16 67 -19 l40 -2 -66 -22 c-122
-42 -194 -113 -206 -206 -6 -45 3 -91 17 -91 6 0 32 16 59 35 26 19 67 42 91
50 43 15 136 20 178 9 21 -6 20 -9 -23 -46 -58 -51 -85 -104 -85 -164 0 -46 0
-46 -23 -32 -12 8 -34 40 -50 72 -15 31 -34 59 -43 63 -25 9 -64 -18 -92 -67
-23 -39 -27 -56 -26 -125 1 -132 37 -204 133 -268 20 -14 25 -26 28 -74 5 -97
21 -144 74 -215 33 -46 80 -91 146 -140 53 -40 98 -77 100 -83 12 -40 -63 -59
-163 -40 -195 38 -335 -44 -309 -181 12 -69 136 -161 240 -179 22 -4 43 -9 46
-11 4 -2 -31 -42 -77 -88 -92 -93 -102 -116 -52 -116 l31 0 -59 -64 c-96 -103
-136 -156 -131 -170 6 -16 106 -56 140 -56 43 0 97 -13 97 -23 0 -20 -76 -81
-136 -109 -34 -16 -89 -33 -122 -39 -34 -6 -62 -15 -62 -19 0 -11 70 -98 101
-127 28 -26 126 -71 177 -81 34 -7 37 -11 57 -77 12 -39 29 -85 38 -102 l17
-32 -42 -22 c-24 -12 -61 -36 -83 -53 -38 -30 -43 -31 -95 -24 -99 14 -339 11
-425 -6 -164 -33 -358 -114 -436 -184 -51 -46 -87 -117 -96 -190 -5 -50 -5
-50 178 -427 75 -155 169 -310 209 -347 77 -70 172 -81 276 -34 52 24 83 58
110 121 15 37 57 63 128 81 27 6 26 4 -28 -62 -31 -38 -73 -103 -94 -143 -68
-136 -47 -231 80 -367 206 -220 677 -485 1204 -679 l102 -38 -13 -31 c-7 -17
-20 -105 -29 -196 -9 -91 -23 -183 -30 -205 -14 -39 -19 -82 -17 -137 1 -35
61 -102 113 -129 135 -69 382 -63 561 14 l49 20 -7 45 -7 45 69 -7 c181 -20
319 -24 548 -18 342 9 762 9 1115 -2 274 -7 470 -1 574 20 29 6 29 6 23 -35
-5 -40 -4 -42 33 -61 91 -46 187 -65 340 -64 128 0 152 3 203 23 103 40 157
105 157 187 0 20 -9 66 -19 102 -11 37 -27 139 -36 227 -9 88 -23 169 -29 180
-12 18 -5 22 123 71 530 201 933 425 1147 638 118 118 149 177 142 275 -6 82
-53 179 -128 264 -28 30 -50 58 -50 60 0 3 26 -3 58 -14 57 -19 60 -22 87 -80
33 -72 82 -112 154 -128 84 -18 203 12 249 62 30 33 128 201 174 297 22 47 79
163 125 259 l85 174 -11 54 c-15 77 -36 116 -91 167 -85 79 -326 176 -505 202
-63 9 -279 9 -365 0 -60 -6 -68 -5 -100 19 -19 15 -56 38 -83 51 l-47 24 22
43 c12 23 29 69 38 102 17 58 18 60 57 67 55 9 105 31 159 69 50 37 128 134
119 149 -3 6 -22 10 -41 10 -61 0 -188 56 -239 106 -25 24 -43 49 -40 54 3 6
25 10 49 10 53 0 137 24 167 49 l22 18 -67 84 c-37 46 -83 96 -103 111 l-36
27 41 7 42 6 -23 32 c-12 17 -52 61 -90 97 l-68 67 43 6 c90 13 213 89 244
149 37 71 -8 171 -94 209 -36 16 -57 19 -111 14 -170 -17 -222 -18 -236 -6
-28 23 -16 48 41 86 172 114 264 254 264 399 0 45 3 53 26 66 54 29 101 95
119 170 30 123 9 223 -58 273 -35 26 -54 16 -83 -44 -12 -24 -35 -55 -50 -69
l-29 -24 -5 54 c-7 70 -27 106 -90 162 l-51 46 47 7 c103 15 197 -9 281 -73
44 -34 57 -23 50 44 -11 106 -77 180 -196 220 -67 22 -67 30 2 35 l37 3 -21
31 c-50 69 -145 112 -271 121 -63 5 -79 9 -83 24 -11 34 -64 69 -105 69 -46 0
-74 -29 -85 -87 -7 -40 -34 -93 -47 -93 -4 0 0 17 9 37 10 25 14 56 11 92 -4
46 -10 59 -38 84 -43 39 -82 32 -130 -23 -39 -44 -74 -60 -134 -62 -47 -1 -86
15 -170 65 -196 120 -424 108 -558 -28 -51 -52 -90 -122 -90 -161 0 -20 -5
-24 -32 -24 -19 0 -55 14 -87 33 -75 45 -183 97 -351 166 -104 43 -214 102
-403 215 -143 86 -263 156 -268 156 -4 0 -91 -42 -192 -94z m1845 -288 c19 -6
83 -33 142 -60 111 -51 184 -67 250 -54 34 6 55 21 90 65 23 28 56 27 67 -1
11 -30 -20 -110 -60 -156 l-31 -34 35 -32 c19 -17 63 -55 97 -85 111 -97 219
-252 236 -338 6 -29 4 -33 -15 -33 -11 0 -21 5 -21 11 0 16 -59 98 -110 153
-139 150 -289 205 -557 206 -123 0 -134 2 -183 27 -39 20 -70 28 -119 30 l-66
3 42 -14 c96 -31 176 -107 226 -214 26 -56 31 -79 32 -142 0 -64 -4 -82 -27
-120 -14 -25 -38 -56 -52 -69 l-26 -24 0 64 c0 124 -45 179 -218 269 -150 77
-201 179 -144 287 6 10 34 32 62 47 75 41 160 38 311 -10 93 -29 131 -36 205
-37 86 -1 95 1 165 35 41 20 88 51 104 68 l30 32 -40 -20 c-121 -60 -220 -65
-432 -21 -181 37 -258 39 -333 10 -30 -11 -56 -21 -58 -21 -6 0 32 67 55 97
30 41 97 81 154 93 49 10 136 4 189 -12z m-3215 -12 c28 -12 65 -39 82 -60 32
-36 68 -95 61 -101 -2 -2 -28 5 -58 15 -77 27 -160 25 -313 -9 -233 -52 -301
-50 -428 14 -28 15 -53 24 -56 22 -8 -8 82 -76 128 -96 63 -28 160 -43 227
-35 31 3 105 21 163 40 167 54 281 44 348 -30 31 -33 41 -119 18 -162 -26 -50
-98 -109 -196 -159 -129 -67 -181 -139 -181 -254 l0 -44 -26 24 c-36 33 -71
97 -78 139 -7 49 19 152 56 223 36 66 97 119 188 161 l55 26 -48 0 c-32 0 -69
-10 -112 -30 -61 -29 -70 -30 -199 -30 -212 0 -326 -29 -455 -114 -80 -53
-150 -127 -193 -203 -30 -53 -58 -69 -58 -34 0 29 65 150 120 223 46 61 129
140 220 209 l34 26 -31 39 c-59 76 -79 137 -54 168 20 24 37 20 62 -15 59 -83
199 -79 361 11 111 61 275 78 363 36z m-945 -122 c5 -67 13 -80 61 -108 32
-19 32 -19 27 2 -5 19 -3 20 26 15 61 -11 60 -18 -11 -61 -37 -22 -100 -68
-140 -101 -57 -49 -79 -61 -106 -61 -19 0 -40 6 -46 14 -23 27 -123 51 -218
51 -101 0 -104 5 -28 49 56 34 144 56 220 56 l60 1 -44 39 c-25 21 -61 43 -80
48 l-36 9 28 12 c16 6 54 11 86 11 l57 0 21 -49 c14 -35 34 -59 69 -84 27 -20
50 -34 52 -33 2 2 -13 30 -33 62 -27 46 -35 70 -35 107 0 61 14 89 43 85 19
-3 23 -11 27 -64z m4918 54 c29 -29 6 -140 -43 -204 -15 -19 -25 -37 -22 -40
2 -3 27 13 55 35 35 28 55 54 67 85 l18 46 71 -1 c39 0 80 -4 91 -9 l20 -8
-20 -7 c-62 -21 -75 -29 -106 -61 l-33 -34 65 0 c88 0 170 -23 235 -66 66 -44
75 -56 32 -43 -74 21 -228 1 -288 -38 -14 -10 -42 -15 -68 -14 -39 1 -52 8
-107 59 -34 31 -96 75 -138 97 -78 41 -87 55 -36 55 17 0 39 5 50 11 18 9 19
8 13 -17 l-7 -28 33 24 c38 27 60 74 60 130 0 35 3 40 23 40 13 0 28 -5 35
-12z m-1853 -64 c33 -3 74 -9 90 -14 42 -11 291 -113 352 -143 57 -29 110 -85
119 -125 26 -122 79 -183 204 -233 145 -58 163 -70 187 -119 14 -30 23 -72 27
-129 3 -46 8 -86 11 -89 7 -7 101 58 154 107 29 27 41 33 41 22 1 -9 5 -50 10
-91 8 -68 6 -83 -18 -157 -14 -45 -23 -85 -19 -89 3 -3 19 4 34 16 l28 22 6
-59 c8 -69 19 -389 20 -558 1 -107 -2 -152 -16 -275 -2 -19 -4 -59 -4 -88 l-1
-54 -80 -77 c-76 -73 -84 -86 -82 -138 1 -13 -4 -23 -11 -23 -130 -5 -1594 3
-1599 8 -4 4 -8 518 -8 1142 -1 1079 0 1135 17 1148 15 11 63 13 248 7 127 -3
257 -8 290 -11z m-2428 -278 c-8 -11 -26 -42 -40 -67 l-27 -46 -70 -7 c-201
-18 -313 -131 -326 -331 l-5 -70 24 58 c57 132 165 228 319 283 l39 13 -3 -50
c-3 -58 -8 -62 -142 -115 -37 -15 -81 -38 -97 -52 -43 -35 -86 -103 -113 -174
l-24 -63 -9 40 c-4 22 -8 85 -7 140 0 97 10 141 59 259 7 16 2 15 -36 -8 -69
-43 -180 -95 -219 -102 l-35 -7 36 44 c131 162 460 302 657 280 31 -3 32 -5
19 -25z m3823 9 c88 -23 191 -71 284 -134 75 -51 186 -153 186 -171 0 -23
-162 43 -247 101 -53 37 -57 36 -33 -4 31 -52 50 -153 49 -262 -1 -55 -5 -111
-9 -125 -4 -14 -8 -18 -9 -10 -3 37 -64 144 -108 187 -45 43 -150 103 -182
103 -7 0 -28 9 -46 20 -29 18 -34 26 -37 71 l-3 51 30 -6 c126 -25 273 -155
332 -293 l24 -58 -4 65 c-9 126 -78 245 -171 292 -54 28 -131 48 -183 48 -40
0 -43 2 -73 55 -17 30 -35 57 -41 60 -5 4 -9 13 -9 21 0 19 160 12 250 -11z
m-4612 -117 c-30 -46 -56 -135 -63 -214 l-7 -80 44 -10 43 -9 -67 -68 -67 -67
-25 43 c-58 98 -69 233 -25 304 28 45 106 112 143 122 39 10 42 7 24 -21z
m5217 13 c46 -20 101 -79 122 -128 17 -41 19 -144 4 -199 -6 -22 -24 -61 -42
-88 l-31 -49 -18 29 c-11 16 -43 50 -72 77 l-53 47 40 -5 c67 -9 70 -2 51 111
-10 58 -29 125 -46 162 -33 71 -27 76 45 43z m-5584 -220 c22 -16 53 -33 70
-36 24 -5 29 -12 29 -35 0 -15 -7 -33 -14 -40 -8 -6 -23 -33 -32 -58 -25 -67
-31 -71 -59 -37 -49 59 -77 235 -38 235 2 0 21 -13 44 -29z m5955 4 c14 -58
-22 -181 -65 -219 -11 -11 -22 -17 -24 -15 -35 60 -74 152 -70 167 3 12 22 27
48 36 23 9 51 26 60 36 25 27 43 25 51 -5z m-486 -152 c135 -122 164 -292 80
-470 -16 -35 -30 -63 -32 -63 -2 0 -3 39 -3 88 0 48 -6 105 -14 126 -24 70
-142 176 -195 176 -12 0 -12 7 1 51 10 32 14 78 11 124 l-3 74 47 -26 c27 -15
75 -51 108 -80z m-4893 57 c-4 -41 5 -121 18 -172 6 -25 4 -28 -35 -39 -50
-15 -124 -79 -149 -128 -27 -53 -33 -86 -32 -176 l1 -80 -20 30 c-39 59 -55
125 -55 230 0 93 2 105 33 167 36 73 93 131 177 179 28 16 54 29 58 29 4 0 6
-18 4 -40z m5220 -128 c10 -90 -41 -229 -132 -357 -58 -82 -100 -119 -56 -50
69 109 83 186 56 303 l-15 63 36 31 c19 17 44 49 56 72 l20 40 15 -27 c8 -15
17 -49 20 -75z m-5591 -11 c36 -32 36 -33 25 -76 -27 -109 -7 -222 59 -330
l30 -50 -45 50 c-54 58 -117 160 -147 237 -26 64 -31 208 -9 247 l14 25 18
-36 c10 -19 34 -49 55 -67z m771 6 c39 -36 103 -128 103 -149 0 -4 -33 10 -72
32 -40 22 -77 40 -82 40 -5 0 -6 -13 -3 -30 8 -37 -4 -44 -48 -29 -27 10 -39
23 -55 60 -28 66 -25 93 17 141 14 16 18 16 55 -3 22 -11 60 -39 85 -62z
m4102 33 l22 -40 -25 -55 c-19 -41 -33 -58 -58 -68 -46 -19 -58 -13 -47 26 5
17 7 33 4 35 -2 2 -35 -13 -72 -34 -87 -50 -84 -49 -76 -27 28 77 156 203 207
203 16 0 29 -12 45 -40z m-2842 -72 c-3 -13 -47 -228 -97 -478 -51 -250 -93
-456 -94 -457 0 -1 -26 -2 -56 -4 -43 -2 -55 0 -53 12 3 22 184 923 188 937 3
8 24 12 61 12 53 0 56 -1 51 -22z m-1595 -100 c3 -7 -23 -53 -57 -103 -59 -86
-69 -112 -101 -250 l-7 -30 -9 40 c-13 55 6 174 37 234 24 48 97 121 121 121
7 0 14 -5 16 -12z m4677 -14 c36 -30 74 -90 96 -154 17 -48 21 -156 9 -206 -7
-25 -9 -19 -20 45 -18 103 -37 149 -100 238 -53 73 -62 103 -30 103 8 0 28
-12 45 -26z m-3449 -91 l0 -88 -181 -80 c-99 -44 -180 -84 -179 -90 1 -5 79
-45 173 -89 95 -43 176 -82 180 -86 7 -6 10 -75 8 -163 -1 -15 -50 7 -268 119
-148 75 -270 140 -273 144 -3 5 -3 41 0 82 l5 73 260 132 c143 73 263 132 268
133 4 0 7 -39 7 -87z m710 -47 l265 -134 3 -78 3 -79 -273 -137 -273 -136 -3
85 c-2 47 -1 87 1 90 3 2 86 42 186 87 100 46 182 87 182 91 0 4 -82 45 -183
90 l-183 82 -3 86 c-1 48 1 87 5 87 4 0 127 -61 273 -134z m-1677 72 c80 -31
98 -48 48 -48 -36 0 -61 -9 -61 -21 0 -6 9 -20 21 -32 56 -59 99 -188 99 -297
0 -139 -48 -248 -159 -360 -36 -37 -76 -72 -88 -78 l-21 -12 13 58 c8 31 10
60 6 64 -3 4 -33 -12 -66 -36 -55 -42 -129 -83 -189 -106 -25 -9 -26 -8 -26
28 0 58 54 124 190 235 41 33 78 63 82 66 4 3 -57 6 -135 6 -139 0 -143 1
-207 32 l-65 31 125 1 c145 1 184 10 242 54 105 80 115 174 32 284 -13 17 -24
34 -24 37 0 7 61 -15 88 -32 39 -25 24 2 -43 81 -36 42 -65 78 -65 81 0 13
137 -11 203 -36z m4228 -40 c-39 -46 -67 -84 -62 -86 5 -2 28 6 50 17 60 31
65 26 26 -24 -61 -81 -70 -166 -22 -228 13 -18 53 -49 88 -69 l64 -38 135 -1
135 -1 -65 -31 c-63 -31 -68 -32 -203 -32 -75 0 -137 -1 -137 -1 0 -1 26 -21
58 -45 141 -106 212 -190 212 -251 0 -21 -5 -38 -10 -38 -20 0 -135 62 -198
107 -35 25 -66 42 -69 39 -4 -3 -1 -29 5 -58 7 -28 10 -53 8 -56 -8 -7 -80 53
-135 113 -90 99 -140 238 -126 349 16 124 54 226 103 279 31 32 23 45 -31 49
-20 1 -37 5 -37 9 0 8 129 66 160 72 14 2 47 5 73 6 l48 1 -70 -82z m-4808
-484 c20 -13 37 -26 37 -28 0 -2 -35 -9 -78 -15 -68 -10 -90 -9 -176 9 -55 11
-101 19 -103 17 -7 -8 73 -54 122 -71 105 -35 208 -29 299 18 33 17 90 7 94
-17 2 -9 -13 -38 -33 -63 -46 -61 -69 -140 -61 -206 l7 -50 -74 -72 c-63 -63
-86 -78 -167 -112 -106 -43 -98 -57 13 -24 102 31 139 52 207 119 33 32 79 66
102 76 24 9 67 30 95 46 29 16 57 29 62 29 5 0 15 -16 21 -35 7 -22 18 -35 29
-35 9 0 51 25 93 55 42 30 79 55 82 55 3 0 -18 -39 -47 -86 -56 -88 -122 -174
-136 -174 -4 0 -18 30 -31 68 -13 37 -27 72 -32 79 -7 9 -32 -7 -91 -58 -91
-77 -197 -136 -301 -168 -81 -25 -179 -35 -221 -23 l-30 9 72 74 c39 41 110
101 157 134 47 33 86 63 86 67 0 3 -35 4 -77 1 -95 -7 -96 -10 64 124 149 124
155 134 58 102 -81 -28 -217 -23 -290 10 -61 27 -115 77 -115 106 0 54 66 75
215 68 94 -5 115 -9 148 -29z m5548 24 c21 -6 46 -19 55 -29 14 -16 15 -23 4
-50 -43 -103 -260 -153 -404 -94 -104 42 -92 24 64 -100 66 -52 124 -104 131
-116 11 -22 11 -22 -70 -15 -44 3 -81 3 -81 -1 0 -5 45 -39 100 -76 93 -65
210 -173 210 -196 0 -18 -83 -23 -155 -8 -157 33 -304 108 -411 209 -32 30
-58 48 -63 42 -4 -5 -21 -44 -36 -87 l-28 -78 -24 28 c-35 42 -164 236 -159
240 2 2 40 -21 85 -51 45 -31 86 -56 91 -56 5 0 16 15 24 34 8 18 18 36 24 39
5 4 31 -8 58 -25 27 -17 72 -40 99 -51 30 -12 77 -46 116 -84 37 -34 89 -72
115 -84 56 -24 195 -61 202 -54 3 2 -4 8 -14 11 -138 48 -224 97 -288 163 -38
39 -40 44 -42 108 -3 93 -20 150 -60 202 -19 24 -34 54 -34 67 0 34 61 37 129
6 98 -45 246 -30 341 34 41 28 34 29 -57 8 -65 -15 -170 -14 -230 2 -59 16 9
57 107 65 128 10 161 9 201 -3z m-4893 -581 c109 -48 186 -97 203 -128 9 -18
6 -25 -25 -51 -20 -16 -36 -36 -36 -44 0 -21 -53 -50 -126 -70 -50 -13 -74
-15 -114 -7 -66 13 -65 -1 3 -47 67 -46 142 -145 163 -216 19 -66 21 -191 4
-254 -11 -40 -44 -113 -69 -149 -7 -11 -12 -4 -22 27 -12 41 -13 42 -95 67
-120 37 -167 59 -213 101 -23 20 -43 35 -44 33 -2 -2 -13 -37 -25 -76 -13 -40
-27 -73 -31 -73 -16 0 -90 59 -114 92 -43 58 -87 155 -87 195 0 37 -1 36 -46
-47 -25 -47 -47 -86 -48 -88 -5 -4 -54 159 -61 201 -6 36 -7 37 -48 37 -69 0
-157 18 -189 38 l-31 20 67 32 c73 34 187 133 208 180 9 21 23 31 50 38 21 6
38 8 38 6 0 -3 -11 -21 -24 -42 -26 -42 -60 -73 -159 -147 -36 -27 -67 -53
-67 -57 0 -8 121 47 171 78 49 30 105 98 125 151 19 50 31 54 40 16 4 -16 24
-65 45 -110 l38 -83 -21 -57 c-30 -86 -22 -196 20 -287 18 -38 34 -67 37 -65
2 3 -3 29 -12 58 -17 61 -15 263 3 281 8 8 27 -10 66 -62 101 -133 187 -209
328 -291 59 -34 120 -59 120 -50 0 5 -41 40 -92 78 -137 104 -286 255 -353
358 -50 78 -151 276 -143 281 2 2 17 12 35 25 l32 22 47 -36 c62 -48 130 -82
201 -101 66 -17 216 -21 253 -5 24 9 24 10 -10 11 -69 1 -146 12 -200 27 -56
15 -187 79 -227 111 l-22 17 43 37 44 37 30 -72 c16 -39 34 -73 39 -74 12 -4
135 99 167 141 15 20 29 36 31 36 3 0 49 -19 103 -43z m4089 -3 c55 -68 143
-137 158 -124 6 5 24 41 39 79 l27 69 43 -41 43 -42 -50 -34 c-113 -76 -227
-111 -366 -111 -80 0 -71 -15 16 -29 92 -14 182 1 278 48 45 22 98 54 119 70
l38 30 39 -19 38 -20 -29 -68 c-92 -216 -198 -346 -454 -557 -60 -49 -104 -91
-98 -93 7 -2 62 25 124 60 130 73 214 147 308 272 60 80 65 84 74 63 16 -37
11 -246 -7 -294 -23 -61 -3 -53 26 10 51 110 60 240 22 321 l-18 37 42 89 c22
48 41 94 41 102 0 7 4 19 9 27 7 11 18 -3 42 -53 18 -37 50 -83 72 -103 39
-35 183 -110 193 -100 3 3 -23 26 -58 53 -85 63 -137 113 -155 147 -17 35 -14
40 21 31 15 -4 39 -24 55 -48 46 -66 126 -135 198 -168 l65 -31 -23 -18 c-34
-27 -84 -39 -160 -39 -69 0 -79 -6 -79 -48 0 -26 -52 -192 -61 -192 -4 0 -24
36 -45 80 -22 43 -42 79 -45 80 -3 0 -4 -14 -1 -30 9 -63 -97 -227 -176 -273
-35 -20 -33 -23 -61 65 l-22 67 -46 -35 c-62 -48 -83 -57 -199 -93 -102 -32
-102 -32 -109 -69 l-7 -37 -21 27 c-12 15 -33 55 -47 90 -21 53 -25 79 -25
168 0 94 3 110 27 156 38 73 101 148 158 191 28 21 50 40 50 43 0 3 -33 4 -74
2 -108 -6 -165 16 -236 88 -61 62 -63 72 -16 112 49 42 236 136 273 137 6 1
29 -20 50 -45z m-2111 -228 c12 -17 14 -189 14 -1142 l0 -1122 -32 -4 c-17 -3
-103 -3 -191 -1 l-159 3 -81 73 c-145 130 -444 460 -575 633 -192 255 -452
703 -452 779 0 46 -18 88 -69 154 -33 44 -53 93 -115 280 -99 302 -104 335
-54 359 16 7 278 10 861 9 818 -2 839 -2 853 -21z m494 -265 c0 -31 5 -53 15
-61 33 -27 7 -75 -37 -68 -26 3 -38 49 -18 73 6 8 11 29 10 47 -3 51 -1 58 15
58 11 0 15 -12 15 -49z m110 0 c0 -31 5 -53 15 -61 18 -15 19 -42 3 -58 -17
-17 -53 -15 -69 4 -11 14 -10 21 4 46 9 16 17 50 17 74 0 32 4 44 15 44 11 0
15 -12 15 -49z m118 -1 c1 -25 8 -55 14 -68 16 -32 -1 -57 -38 -57 -24 0 -30
4 -32 29 -2 16 1 33 7 39 6 6 11 33 11 60 0 41 3 48 18 45 13 -2 18 -15 20
-48z m102 1 c0 -31 5 -53 15 -61 25 -20 19 -59 -10 -66 -14 -3 -32 -4 -40 0
-17 6 -20 51 -5 61 6 3 10 28 10 54 0 26 3 51 7 54 16 17 23 4 23 -42z m120
-4 c0 -29 5 -58 11 -64 6 -6 9 -21 7 -34 -2 -20 -9 -24 -38 -24 -32 0 -35 3
-38 33 -2 18 1 32 7 32 6 0 11 21 11 48 0 51 5 62 27 62 9 0 13 -15 13 -53z
m110 9 c0 -24 6 -56 14 -72 20 -37 5 -64 -34 -64 -23 0 -31 5 -36 26 -4 14 -2
30 5 37 6 6 11 32 11 57 0 49 5 60 27 60 9 0 13 -14 13 -44z m110 -4 c0 -26 5
-53 11 -59 6 -6 9 -23 7 -39 -2 -21 -9 -30 -26 -32 -44 -7 -70 41 -37 68 10 8
15 30 15 61 0 37 4 49 15 49 11 0 15 -12 15 -48z m34 -178 c9 -8 18 -25 21
-37 3 -12 5 -179 3 -370 -3 -332 -4 -349 -22 -363 -16 -11 -85 -14 -385 -14
-325 0 -366 2 -383 17 -17 15 -18 40 -18 381 0 326 2 367 17 384 15 17 40 18
384 18 321 0 370 -2 383 -16z m-826 -57 c-4 -38 -33 -47 -70 -23 -13 8 -40 14
-61 14 -42 0 -52 5 -42 21 3 6 27 11 53 11 26 0 55 7 66 15 29 22 58 2 54 -38z
m1006 23 c25 0 48 -5 51 -10 8 -13 -32 -28 -65 -25 -14 2 -33 -4 -42 -12 -9
-8 -27 -13 -40 -11 -19 2 -24 10 -26 40 -4 42 18 54 55 31 12 -7 42 -13 67
-13z m-1009 -131 c0 -38 8 -36 -110 -22 -43 6 -60 12 -60 23 0 11 13 16 49 18
27 2 55 9 63 17 24 25 58 4 58 -36z m-2975 33 c0 -5 13 -28 29 -53 23 -36 30
-63 40 -148 16 -132 51 -272 86 -342 32 -63 138 -176 205 -219 67 -43 71 -37
14 23 -64 66 -107 129 -150 221 -31 69 -74 216 -87 298 l-5 36 47 -21 c45 -21
47 -23 64 -91 24 -100 61 -169 127 -239 57 -61 135 -109 195 -122 l30 -6 -25
18 c-93 66 -256 258 -314 370 -20 40 -20 40 2 45 14 4 22 22 32 67 20 97 58
78 88 -46 41 -163 102 -281 193 -374 56 -56 153 -118 220 -140 59 -20 52 -26
-18 -17 -105 13 -238 54 -352 108 -100 48 -103 49 -85 22 16 -25 69 -93 130
-169 l27 -33 -29 -1 c-89 -4 -182 37 -257 113 -54 54 -125 178 -172 300 -27
72 -28 71 -29 -36 -1 -46 -5 -81 -12 -83 -16 -5 -82 115 -90 163 -3 23 -1 75
6 114 7 39 10 73 8 75 -2 3 -35 -38 -74 -91 -115 -157 -138 -184 -146 -171
-15 24 -9 197 8 233 19 40 69 86 125 115 39 19 42 19 60 3 18 -16 20 -15 48
15 17 18 33 41 36 52 6 19 25 27 25 11z m3926 -1 c5 -6 32 -11 59 -13 64 -4
65 -22 1 -26 -27 -2 -55 -10 -63 -18 -33 -33 -78 0 -65 48 5 19 51 25 68 9z
m1299 -8 c3 -10 19 -34 35 -53 29 -34 31 -34 45 -16 14 19 16 19 50 3 20 -10
58 -38 85 -63 59 -55 76 -109 67 -217 -4 -40 -7 -78 -7 -86 0 -14 -49 46 -86
105 -11 19 -45 65 -75 104 -52 67 -78 89 -65 53 4 -9 9 -58 13 -109 l6 -92
-38 -68 c-46 -84 -43 -80 -57 -66 -6 6 -10 43 -9 94 l2 83 -74 -150 c-49 -98
-91 -168 -121 -202 -61 -68 -150 -113 -237 -120 l-64 -5 36 38 c48 52 152 185
147 189 -1 1 -58 -22 -125 -52 -84 -37 -152 -60 -223 -73 -136 -27 -145 -25
-72 14 85 46 163 106 205 158 73 91 146 256 162 369 5 36 12 49 31 58 38 17
39 15 52 -49 8 -35 20 -63 29 -69 15 -8 11 -18 -27 -82 -89 -152 -183 -260
-283 -324 -15 -10 -26 -20 -24 -22 8 -7 122 40 164 68 88 61 171 192 194 309
10 54 14 58 56 79 l46 22 -7 -51 c-10 -73 -97 -320 -137 -386 -19 -31 -61 -83
-93 -115 -33 -32 -55 -59 -50 -59 22 0 111 67 176 131 111 111 148 211 178
476 8 75 16 101 42 142 33 55 43 61 53 34z m-789 -95 c14 -29 37 -65 51 -79
28 -31 30 -29 -62 -59 -139 -45 -177 -77 -214 -175 -32 -86 -25 -91 29 -26 98
117 134 145 257 197 30 13 33 12 79 -26 51 -42 64 -40 64 12 0 51 20 76 74 94
28 9 57 19 64 22 20 7 -57 -140 -126 -244 -63 -93 -107 -142 -119 -131 -8 9
15 114 33 149 29 56 11 49 -68 -29 -46 -44 -98 -88 -116 -97 -47 -24 -177 -56
-229 -56 l-45 0 7 33 c14 64 59 160 101 217 36 49 51 61 86 70 24 6 48 13 53
14 28 9 -60 30 -127 30 -43 0 -78 2 -78 3 0 1 8 18 17 38 21 45 80 74 170 84
38 5 69 9 70 10 2 0 14 -23 29 -51z m-3531 28 c28 -7 64 -20 82 -29 33 -17 90
-83 80 -93 -3 -3 -21 -1 -41 4 -42 12 -120 8 -161 -8 l-30 -12 49 -17 c75 -26
152 -130 189 -257 22 -76 16 -80 -94 -60 -127 23 -206 63 -287 143 -48 48 -63
59 -58 42 25 -88 36 -136 36 -153 0 -18 -3 -17 -31 10 -71 66 -229 309 -229
352 0 6 28 1 64 -11 68 -22 86 -41 86 -95 0 -53 13 -55 64 -11 l47 41 62 -31
c88 -43 154 -96 216 -174 30 -37 56 -65 58 -63 9 9 -30 111 -54 144 -34 46
-85 77 -178 107 -44 15 -82 28 -84 30 -1 2 11 21 28 42 16 21 37 55 46 76 14
33 19 37 53 37 20 0 60 -6 87 -14z m2070 -66 c0 -39 -21 -50 -59 -31 -11 6
-41 12 -66 13 -32 2 -45 7 -45 18 0 11 14 16 50 18 28 2 54 8 60 13 5 5 21 9
35 7 21 -3 25 -8 25 -38z m951 31 c5 -6 32 -11 59 -13 36 -2 50 -7 50 -18 0
-11 -14 -16 -50 -18 -27 -2 -54 -7 -59 -13 -6 -5 -20 -9 -33 -9 -28 0 -46 36
-31 63 9 18 48 23 64 8z m-951 -141 c0 -29 -4 -36 -23 -38 -13 -2 -30 2 -39
10 -9 7 -36 14 -61 15 -49 2 -57 6 -47 22 3 6 28 11 55 11 27 0 52 5 55 11 4
5 19 9 33 7 24 -3 27 -8 27 -38z m950 30 c3 -5 28 -10 55 -10 48 0 74 -15 51
-30 -7 -4 -30 -6 -51 -4 -24 2 -43 -2 -50 -12 -32 -38 -93 3 -70 46 11 21 54
28 65 10z m-5082 -112 c-62 -64 -73 -85 -73 -135 0 -63 64 -113 144 -113 78 0
161 52 198 123 l20 41 14 -27 c8 -14 58 -158 110 -318 87 -263 96 -298 92
-350 -6 -85 -48 -127 -140 -139 -49 -7 -67 3 -25 13 12 4 31 13 42 21 18 14
15 15 -41 9 -66 -6 -97 10 -41 22 19 4 44 21 62 43 24 29 26 34 10 28 -65 -27
-94 -35 -132 -36 -23 0 -45 5 -48 10 -4 6 8 10 28 10 49 0 93 18 112 46 18 28
18 28 -28 9 -54 -23 -157 -19 -157 6 0 4 7 6 14 3 26 -10 125 26 161 58 40 35
40 49 1 22 -17 -11 -51 -18 -94 -19 -37 -1 -51 -1 -31 2 27 3 47 16 80 50 27
28 36 43 24 38 -92 -35 -186 -48 -206 -28 -5 5 6 7 27 5 44 -5 113 20 144 53
27 29 25 30 -23 10 -37 -15 -161 -24 -173 -12 -4 4 9 7 30 7 50 0 93 20 146
68 49 45 41 53 -21 21 -55 -27 -147 -43 -179 -30 -22 8 -19 10 25 10 49 1 145
37 159 60 9 14 11 14 -48 -4 -57 -17 -134 -19 -156 -4 -12 9 -11 10 7 6 38 -8
116 12 170 45 29 18 53 35 53 39 0 3 -26 -3 -57 -13 -63 -21 -178 -27 -196 -9
-8 8 5 11 51 11 83 0 161 30 206 80 20 22 36 46 36 54 0 8 3 23 7 33 4 11 -9
4 -35 -19 -58 -52 -97 -70 -167 -75 -82 -7 -142 11 -182 54 -28 30 -33 42 -33
85 0 67 26 108 98 153 31 19 59 35 61 35 3 0 -18 -24 -46 -52z m7565 -12 c45
-42 62 -77 62 -127 0 -35 -6 -48 -38 -79 -86 -86 -247 -77 -336 19 -34 36 -46
39 -46 13 0 -31 56 -99 106 -128 37 -22 63 -28 128 -32 53 -3 74 -8 61 -13
-34 -13 -140 -10 -185 6 -50 18 -53 18 -45 5 10 -16 122 -70 144 -70 11 0 23
-4 26 -10 9 -14 -41 -12 -105 5 l-55 14 30 -25 c41 -34 68 -44 123 -45 l47 -1
-35 -8 c-41 -10 -105 2 -160 30 -48 25 -68 26 -50 5 26 -31 92 -78 128 -91
l37 -13 -48 -1 c-26 0 -64 7 -84 15 -48 20 -51 14 -9 -19 43 -32 78 -46 118
-46 17 0 28 -3 25 -7 -13 -12 -97 -3 -150 17 -28 11 -54 20 -55 20 -10 0 76
-83 93 -90 17 -7 15 -9 -11 -9 -17 -1 -52 10 -77 23 -26 13 -47 20 -47 17 0
-13 75 -77 103 -89 15 -7 42 -12 60 -13 27 0 29 -2 12 -9 -34 -15 -84 -11
-125 10 -59 30 -70 23 -26 -15 29 -26 52 -36 89 -41 39 -6 46 -9 32 -17 -28
-15 -91 -1 -146 33 -28 17 -53 30 -54 28 -9 -9 97 -108 115 -108 11 0 20 -5
20 -11 0 -8 -20 -9 -67 -4 -64 6 -67 5 -46 -9 12 -9 32 -20 45 -25 21 -9 21
-10 -10 -10 -42 -1 -104 30 -126 64 -37 56 -25 118 79 425 53 157 99 293 102
303 7 24 18 21 31 -7 18 -40 94 -94 154 -110 77 -20 122 -8 171 44 34 36 38
45 32 73 -11 48 -29 78 -75 126 -48 49 -16 39 38 -13z m-3429 2 c5 -13 5 -31
-1 -40 -9 -19 -48 -24 -63 -9 -6 6 -32 11 -60 13 -36 2 -50 7 -50 18 0 11 14
16 50 18 28 2 54 7 60 13 18 18 55 10 64 -13z m947 13 c5 -6 32 -11 59 -13 36
-2 50 -7 50 -18 0 -11 -14 -16 -50 -18 -27 -2 -54 -7 -59 -13 -17 -16 -55 -10
-66 11 -21 40 33 82 66 51z m-948 -143 c3 -36 2 -38 -27 -38 -16 0 -33 5 -36
10 -3 6 -28 10 -55 10 -44 0 -71 13 -56 27 3 3 25 5 50 5 28 -1 49 4 57 14 7
8 24 14 38 12 22 -3 26 -9 29 -40z m948 33 c5 -6 32 -11 59 -13 36 -2 50 -7
50 -18 0 -11 -14 -16 -50 -18 -27 -2 -54 -7 -59 -13 -6 -5 -23 -9 -38 -9 -25
0 -28 3 -28 33 0 19 3 37 7 40 10 10 48 8 59 -2z m-946 -131 c4 -14 5 -31 2
-37 -5 -15 -58 -17 -67 -3 -3 6 -28 10 -55 10 -48 0 -74 15 -51 29 6 4 29 6
50 4 26 -2 43 2 52 13 19 23 62 14 69 -16z m949 17 c6 -8 32 -15 58 -16 51 -1
58 -4 48 -20 -3 -6 -28 -11 -55 -11 -27 0 -52 -4 -55 -10 -9 -14 -65 -12 -66
3 -2 16 1 39 6 55 6 16 50 16 64 -1z m-3066 -72 c85 -37 188 -65 271 -71 62
-6 76 -10 76 -24 0 -26 -29 -113 -45 -134 -13 -17 -16 -17 -61 -2 -26 9 -49
14 -51 12 -2 -2 18 -22 44 -44 29 -25 91 -60 158 -88 126 -54 176 -85 228
-143 45 -50 104 -166 113 -222 l7 -42 -119 7 c-66 4 -125 12 -133 19 -8 7 -46
53 -86 102 -78 98 -115 135 -115 116 0 -6 12 -30 26 -52 14 -23 41 -76 58
-118 18 -42 47 -104 65 -138 17 -35 28 -63 25 -63 -4 0 -31 7 -60 17 -50 15
-52 18 -58 58 -9 57 -145 262 -228 341 -167 161 -238 227 -238 220 0 -5 19
-42 41 -83 27 -49 78 -113 145 -184 56 -60 134 -156 173 -214 38 -58 68 -105
66 -105 -2 0 -40 14 -84 31 -77 29 -82 33 -121 92 -22 34 -47 84 -56 112 -16
50 -53 105 -40 60 3 -11 10 -42 16 -70 6 -27 22 -69 35 -92 13 -24 22 -43 20
-43 -2 0 -32 13 -68 29 l-65 29 -7 71 c-4 39 -10 71 -14 71 -4 0 -12 -19 -19
-42 -20 -74 -22 -75 -91 -37 -35 19 -61 40 -61 49 0 31 48 179 69 216 12 20
20 38 18 41 -12 11 -90 -100 -113 -162 -15 -38 -28 -72 -30 -74 -1 -2 -28 11
-58 28 l-55 32 25 57 c14 31 34 72 45 91 11 18 18 35 16 37 -9 9 -97 -68 -124
-109 l-29 -45 -35 18 -34 18 27 11 c38 14 102 62 133 99 17 20 36 32 51 32 28
0 114 20 114 27 0 2 -9 22 -21 44 -11 23 -19 43 -17 45 2 1 40 -3 83 -11 44
-8 105 -14 136 -15 62 0 190 29 240 56 l33 17 -85 24 c-156 45 -259 105 -259
152 l0 23 35 -26 c19 -15 59 -38 88 -51z m3583 30 c-14 -39 -177 -114 -301
-140 l-30 -7 25 -18 c71 -54 238 -67 433 -34 l38 6 -25 -49 -25 -50 50 -11
c28 -7 59 -12 70 -12 10 0 45 -24 77 -53 31 -29 72 -59 90 -66 39 -17 40 -22
2 -44 -28 -17 -29 -17 -41 5 -18 33 -110 128 -124 128 -8 0 0 -25 21 -67 49
-100 49 -107 -13 -143 l-53 -30 -11 45 c-6 25 -28 72 -49 103 -55 84 -109 127
-61 48 24 -38 74 -218 63 -227 -4 -4 -32 -21 -63 -38 l-56 -31 -16 37 c-8 21
-19 47 -23 58 -5 14 -11 0 -19 -53 -6 -39 -14 -74 -16 -76 -2 -2 -32 -15 -67
-30 l-63 -25 19 32 c23 38 39 86 47 147 l6 45 -25 -58 c-14 -33 -45 -90 -68
-128 -42 -68 -43 -69 -117 -94 -41 -14 -76 -23 -79 -21 -12 13 141 219 219
295 83 83 152 176 198 271 22 45 22 45 -43 -26 -36 -40 -97 -95 -134 -123 -67
-49 -131 -124 -221 -259 -50 -75 -71 -121 -71 -159 0 -25 -5 -30 -57 -45 -32
-9 -60 -15 -62 -12 -3 2 14 41 38 85 23 44 50 102 61 128 10 26 32 71 49 100
18 29 29 56 26 59 -9 9 -55 -39 -125 -134 -38 -51 -73 -94 -78 -98 -5 -3 -62
-8 -127 -12 l-118 -7 6 48 c9 64 37 124 92 194 58 76 86 96 218 153 108 47
251 138 229 146 -7 2 -31 -3 -53 -12 -21 -9 -41 -16 -44 -16 -10 0 -46 83 -54
124 l-8 43 78 6 c131 10 285 61 357 117 27 21 40 14 28 -15z m-4371 -62 c107
-49 128 -70 33 -34 -149 58 -198 62 -198 17 0 -29 45 -98 104 -160 68 -73 56
-70 -20 4 -113 111 -151 189 -101 210 34 15 95 3 182 -37z m5243 4 c2 -16 -6
-42 -18 -62 -28 -45 -34 -45 -13 1 34 71 -12 90 -129 50 -40 -13 -74 -23 -76
-21 -2 1 30 17 70 34 52 22 86 30 118 28 41 -2 45 -4 48 -30z m-2198 -42 c13
-16 6 -65 -10 -65 -6 0 -10 -22 -10 -50 0 -38 -4 -50 -15 -50 -11 0 -15 12
-15 49 0 28 -4 53 -10 56 -14 9 -12 62 3 68 23 10 45 7 57 -8z m111 -1 c10
-12 10 -22 1 -48 -7 -18 -12 -51 -12 -74 0 -35 -3 -42 -20 -42 -17 0 -20 7
-20 49 0 31 -5 53 -15 61 -19 16 -19 35 1 54 20 20 48 20 65 0z m107 4 c15
-15 16 -54 2 -63 -5 -3 -10 -28 -10 -55 0 -32 -5 -50 -14 -53 -21 -8 -26 2
-26 54 0 26 -4 51 -10 54 -14 9 -13 48 2 63 7 7 19 12 28 12 9 0 21 -5 28 -12z
m110 0 c16 -16 15 -49 -3 -72 -8 -11 -15 -37 -15 -58 0 -27 -4 -38 -15 -38
-11 0 -15 12 -15 49 0 28 -4 53 -10 56 -14 9 -13 48 2 63 7 7 19 12 28 12 9 0
21 -5 28 -12z m106 6 c18 -7 22 -59 6 -69 -5 -3 -10 -28 -10 -56 0 -42 -3 -49
-20 -49 -17 0 -20 7 -20 49 0 28 -4 53 -10 56 -14 9 -13 48 2 63 13 13 28 15
52 6z m110 0 c18 -7 22 -59 6 -69 -5 -3 -10 -28 -10 -56 0 -37 -4 -49 -15 -49
-11 0 -15 12 -15 50 0 28 -4 50 -10 50 -16 0 -23 49 -10 65 13 16 29 19 54 9z
m127 -26 c4 -17 2 -33 -7 -45 -7 -10 -14 -37 -14 -60 0 -31 -4 -43 -15 -43
-11 0 -15 12 -15 46 0 27 -6 51 -15 60 -20 21 -19 51 3 63 28 17 55 8 63 -21z
m-3827 -209 c39 -33 123 -95 186 -138 686 -464 1608 -736 2480 -733 913 5
1839 292 2485 771 138 103 202 158 247 214 23 30 40 43 42 35 56 -187 99 -279
208 -440 43 -65 84 -131 89 -147 29 -84 -56 -245 -178 -338 -76 -58 -295 -191
-452 -277 -153 -82 -555 -259 -700 -306 -77 -26 -88 -27 -123 -14 -111 39
-258 25 -458 -44 l-135 -46 -395 5 c-575 6 -909 5 -1320 -4 -408 -10 -363 -15
-598 68 -160 56 -229 61 -356 25 l-79 -22 -66 22 c-208 68 -744 316 -941 435
-269 162 -410 315 -410 445 0 43 9 62 109 214 109 166 143 237 186 393 l17 62
45 -60 c25 -33 78 -87 117 -120z m439 21 c49 -10 56 -14 46 -26 -46 -55 -190
-93 -244 -64 -14 7 -25 16 -25 19 0 4 22 14 48 23 26 10 59 29 72 43 13 14 29
24 35 21 6 -2 37 -9 68 -16z m4510 -14 c27 -19 63 -38 80 -42 l30 -6 -24 -19
c-28 -21 -58 -23 -128 -8 -47 10 -139 64 -128 76 4 4 66 21 117 32 3 1 27 -14
53 -33z m-3753 -1435 c40 -6 35 -8 -50 -13 -52 -3 -111 -12 -130 -21 l-35 -15
75 -2 c41 -1 66 -4 55 -7 -49 -11 -85 -25 -85 -34 0 -5 30 -10 68 -10 37 -1
56 -4 42 -6 -45 -7 -90 -24 -90 -34 0 -5 21 -7 48 -4 l47 5 -45 -11 c-25 -6
-52 -17 -61 -25 -8 -8 -21 -14 -27 -14 -7 0 -12 -3 -12 -8 0 -4 35 -6 78 -5
64 2 70 0 37 -7 -22 -4 -53 -14 -70 -21 l-30 -13 50 -6 c43 -6 45 -7 15 -9
-19 -1 -44 -6 -55 -11 -16 -7 -11 -9 23 -11 23 -1 47 -3 52 -4 6 -1 25 -3 43
-4 31 -2 31 -3 8 -12 -14 -5 -51 -12 -83 -16 -32 -3 -58 -10 -58 -14 0 -4 33
-10 73 -11 62 -3 67 -5 39 -12 -48 -13 -48 -24 0 -37 l43 -13 -47 -6 c-56 -7
-75 -20 -30 -20 58 0 33 -17 -28 -19 -71 -2 -165 -32 -197 -63 -23 -21 -23
-21 -23 -1 0 12 9 63 19 114 10 52 24 135 30 184 19 143 26 162 71 185 63 32
158 45 240 31z m3019 -2 c71 -12 119 -33 138 -58 6 -9 17 -54 23 -101 12 -88
46 -298 55 -338 l6 -23 -43 25 c-46 26 -95 41 -167 50 -49 6 -67 16 -31 16 36
0 11 18 -30 22 -36 4 -30 10 25 24 l30 7 -38 11 c-51 16 -37 26 35 26 70 0 69
15 -2 24 -96 13 -101 23 -15 31 l80 8 -40 13 -40 12 35 2 35 2 -37 17 c-58 27
-57 32 3 26 l54 -6 -25 20 c-14 12 -45 28 -70 36 l-45 15 48 -5 c61 -7 55 9
-11 29 l-47 15 63 0 c73 1 74 14 4 35 l-47 15 70 1 70 2 -55 18 c-30 11 -86
20 -125 21 -54 1 -63 3 -40 9 44 11 62 11 134 -1z m-1258 -192 c-10 -9 -11 -8
-5 6 3 10 9 15 12 12 3 -3 0 -11 -7 -18z m545 -60 c-31 -26 -39 -41 -43 -78
-9 -76 29 -128 94 -130 l28 -1 -29 -8 c-17 -5 -36 -5 -46 0 -10 5 -21 6 -25 2
-5 -4 -4 -1 0 7 6 11 4 13 -7 8 -10 -3 -24 3 -35 15 -10 12 -12 18 -4 13 11
-6 13 -4 7 11 -17 42 -18 91 -2 122 9 18 17 35 17 39 0 5 7 7 15 5 8 -2 14 2
14 7 0 5 10 12 23 14 12 2 24 5 26 6 2 0 -13 -14 -33 -32z m-2014 11 c-15 -15
-16 -181 -2 -209 10 -17 7 -19 -25 -19 -22 0 -34 4 -30 10 4 6 11 8 16 5 5 -4
9 38 9 104 0 96 -2 110 -17 114 -10 3 0 5 22 6 30 1 36 -2 27 -11z m140 2 c2
-5 30 -41 63 -80 32 -40 60 -78 61 -86 3 -18 -12 -28 -21 -14 -4 6 -10 8 -14
5 -5 -2 -19 8 -32 23 -22 25 -22 25 -1 8 12 -11 22 -15 22 -9 0 12 -45 55 -52
48 -2 -3 -15 7 -29 22 -22 25 -22 26 -1 9 30 -26 28 -5 -3 24 -14 13 -25 20
-25 16 0 -5 -6 -3 -13 3 -8 6 -18 7 -22 3 -5 -4 -5 -1 -1 6 5 8 -1 16 -16 21
-19 8 -13 10 29 10 28 1 53 -3 55 -9z m138 6 c0 -11 -19 -15 -25 -6 -3 5 1 10
9 10 9 0 16 -2 16 -4z m209 -13 c0 -11 -3 -13 -6 -5 -3 7 -23 12 -48 12 l-44
0 0 -109 c0 -106 0 -110 22 -114 12 -2 -3 -4 -33 -5 -32 0 -46 3 -34 6 20 7
22 14 23 114 2 104 2 107 -21 111 -13 2 14 5 60 6 72 1 82 -1 81 -16z m111 -3
c-26 -26 -33 -59 -28 -127 4 -43 10 -61 28 -75 12 -10 17 -18 11 -18 -15 0
-71 29 -71 36 0 3 4 2 10 -1 6 -3 7 1 4 9 -3 9 -9 14 -13 12 -10 -7 -3 95 10
128 13 34 35 56 56 56 8 0 6 -7 -7 -20z m131 -8 c57 -51 50 -153 -13 -192 -44
-26 -53 -25 -31 4 10 13 22 23 28 23 5 -1 14 15 19 36 12 47 -3 114 -24 109
-8 -2 -12 0 -8 3 4 4 -3 16 -15 26 -19 16 -19 18 -5 19 10 0 32 -13 49 -28z
m151 15 c-10 -11 -8 -160 3 -209 2 -14 -4 -18 -32 -18 -20 0 -32 4 -28 10 4 6
11 8 16 5 5 -4 9 38 9 104 0 96 -2 110 -17 114 -10 3 -1 5 21 6 30 1 36 -2 28
-12z m88 -7 c11 -11 20 -29 20 -40 0 -28 -46 -70 -72 -65 -27 6 -36 15 -15 16
34 3 38 4 47 19 14 22 12 44 -6 66 -8 10 -12 12 -8 4 7 -13 6 -13 -12 0 -10 8
-21 16 -23 17 -2 2 8 3 22 3 15 0 36 -9 47 -20z m146 -2 c4 -13 21 -53 39 -91
25 -53 30 -70 21 -83 -10 -13 -17 -2 -44 63 -18 43 -40 89 -48 103 -14 24 -15
24 -11 2 6 -27 -8 -20 -16 8 -8 31 49 29 59 -2z m197 15 c-9 -3 -13 -36 -13
-113 0 -77 4 -110 13 -113 6 -3 -7 -6 -31 -6 -25 -1 -41 3 -37 9 3 5 12 7 19
4 11 -4 14 16 15 105 1 70 -2 111 -9 111 -5 0 -10 -4 -10 -10 0 -5 -4 -10 -10
-10 -5 0 -7 7 -4 15 4 10 19 15 43 14 20 0 30 -3 24 -6z m160 -5 c3 -7 21 -53
41 -103 20 -49 41 -98 46 -107 9 -16 6 -18 -27 -17 -24 0 -32 3 -21 7 15 6 13
18 -23 107 -23 55 -45 102 -51 104 -6 2 -5 7 3 12 19 12 26 11 32 -3z m296 -5
c0 -11 -3 -13 -6 -5 -2 6 -20 12 -39 12 l-34 0 0 -109 c0 -78 4 -111 13 -114
6 -3 -7 -6 -30 -6 -36 -1 -41 2 -36 16 4 11 8 12 11 5 11 -35 19 0 21 99 l2
111 -50 -3 c-28 -2 -51 -1 -51 4 0 4 45 7 100 7 89 0 100 -2 99 -17z m109 10
c-16 -4 -18 -18 -18 -113 0 -95 2 -109 18 -113 9 -3 -5 -5 -33 -5 -30 0 -42 3
-29 6 20 7 22 14 23 114 2 104 2 107 -21 111 -13 2 0 4 27 4 28 1 42 -1 33 -4z
m451 -106 c24 -61 49 -115 55 -119 6 -4 -11 -8 -37 -8 -40 0 -46 2 -35 14 9
10 15 11 20 2 19 -28 5 17 -31 105 -21 52 -43 93 -50 92 -6 -2 -11 1 -11 6 0
8 11 13 40 20 3 0 25 -50 49 -112z m-189 87 c0 -14 -3 -14 -15 -4 -8 7 -15 14
-15 16 0 2 7 4 15 4 8 0 15 -7 15 -16z m130 -47 c0 -5 -4 -5 -10 -2 -5 3 -10
1 -10 -6 0 -7 -2 -10 -5 -8 -2 3 -2 15 2 28 4 17 8 19 14 9 5 -7 9 -17 9 -21z
m-820 13 c0 -5 -5 -10 -11 -10 -5 0 -7 5 -4 10 3 6 8 10 11 10 2 0 4 -4 4 -10z
m-733 -22 c-3 -8 -6 -5 -6 6 -1 11 2 17 5 13 3 -3 4 -12 1 -19z m-277 -23 c0
-21 -2 -24 -13 -13 -10 9 -11 16 -3 25 15 17 16 16 16 -12z m1013 -33 c24 5
46 -16 32 -30 -3 -3 -5 0 -5 6 0 7 -15 12 -35 12 -20 0 -35 -5 -35 -12 0 -6
-2 -9 -5 -7 -2 3 -2 15 2 28 4 15 8 19 13 10 5 -6 19 -10 33 -7z m-485 -23 c5
-49 13 -70 22 -64 6 3 10 1 10 -5 0 -6 -11 -10 -26 -8 -24 3 -26 7 -29 56 -1
35 1 52 9 49 6 -2 12 -14 14 -28z m1315 14 c-13 -2 -33 -2 -45 0 -13 2 -3 4
22 4 25 0 35 -2 23 -4z m-140 -48 c-3 -9 -8 -14 -10 -11 -3 3 -2 9 2 15 9 16
15 13 8 -4z m67 -25 c0 -11 -7 -20 -15 -20 -13 0 -13 3 -3 20 7 11 14 20 15
20 2 0 3 -9 3 -20z m-2533 4 c-3 -3 -12 -4 -19 -1 -8 3 -5 6 6 6 11 1 17 -2
13 -5z m590 -9 c0 -11 -4 -12 -14 -4 -7 6 -13 13 -13 15 0 2 6 4 13 4 8 0 14
-7 14 -15z m1127 0 c4 -10 -1 -15 -15 -15 -17 0 -18 2 -7 15 16 18 15 18 22 0z
m-1309 -5 c4 -6 -6 -10 -22 -9 -25 0 -26 1 -8 9 11 5 21 9 22 9 1 1 5 -3 8 -9z
m998 -7 c-7 -2 -21 -2 -30 0 -10 3 -4 5 12 5 17 0 24 -2 18 -5z m-1260 -99
c73 -16 77 -18 77 -44 0 -26 -5 -29 -72 -46 -101 -26 -284 -26 -351 0 -62 24
-57 28 13 10 30 -8 76 -14 103 -14 62 0 179 27 203 46 17 14 8 15 -93 9 -157
-8 -200 7 -135 48 33 22 134 18 255 -9z m2900 15 c26 -14 38 -30 31 -41 -3 -4
-67 -8 -142 -9 -132 -1 -136 -1 -102 -16 62 -27 133 -43 205 -44 67 -1 68 -1
30 -11 -49 -12 -169 -4 -264 17 -75 18 -86 25 -76 53 4 15 29 23 108 40 118
24 179 27 210 11z"/>
<path d="M5510 5860 c127 -71 195 -152 236 -282 23 -77 38 -75 30 3 -10 83
-39 157 -81 207 -43 50 -140 100 -210 108 l-50 6 75 -42z"/>
<path d="M2541 5884 c-144 -38 -230 -149 -239 -306 -3 -43 -2 -78 1 -78 3 0
13 24 22 53 49 150 118 234 250 308 77 42 65 50 -34 23z"/>
<path d="M5292 5531 c-11 -7 -44 -82 -38 -88 2 -2 16 -1 31 3 25 6 39 27 47
69 3 18 -21 28 -40 16z"/>
<path d="M5342 5501 c-16 -51 -16 -51 12 -51 19 0 27 9 40 40 21 52 21 50 -12
50 -25 0 -31 -6 -40 -39z"/>
<path d="M5412 5501 c-16 -51 -16 -51 11 -51 19 0 26 8 35 39 16 51 16 51 -11
51 -19 0 -26 -8 -35 -39z"/>
<path d="M5484 5505 c-18 -43 -18 -55 0 -55 11 0 56 60 56 74 0 2 -9 6 -21 9
-16 4 -24 -1 -35 -28z"/>
<path d="M5182 5499 c-39 -15 -62 -32 -84 -62 -42 -59 -69 -113 -63 -129 3 -8
-1 -31 -10 -51 -9 -22 -15 -67 -15 -112 l0 -75 -143 0 c-191 0 -289 -20 -355
-73 -8 -6 -46 -19 -84 -29 -99 -25 -155 -60 -179 -111 -23 -51 -25 -140 -4
-201 8 -25 21 -73 28 -108 12 -58 15 -63 41 -66 15 -2 41 2 57 9 55 22 65 69
38 179 -24 102 -24 131 1 180 11 22 22 40 23 40 2 0 -1 -21 -6 -47 -9 -44 -4
-64 45 -228 l55 -180 -33 -3 c-32 -3 -32 -3 -58 -107 -30 -119 -31 -126 -13
-124 27 3 37 -2 37 -20 0 -29 49 -81 95 -102 121 -55 275 19 275 133 0 47 -20
89 -56 117 -15 12 -21 21 -14 21 21 0 85 -74 96 -111 11 -38 0 -35 159 -38
l71 -1 12 -34 c27 -74 122 -124 212 -112 50 7 111 43 136 81 41 62 21 148 -45
192 -40 27 -32 31 11 6 18 -11 39 -39 56 -75 21 -45 32 -58 50 -58 28 0 28 9
0 132 l-22 98 -68 0 -68 0 -1 88 c-3 198 -2 202 46 252 78 80 94 152 47 210
-15 19 -52 67 -81 105 -43 58 -46 62 -13 28 30 -33 47 -43 71 -43 l31 0 0 59
c0 44 5 65 20 84 18 23 20 38 18 124 l-3 98 -55 3 c-129 8 -303 -38 -363 -95
-25 -24 -35 -30 -28 -17 15 30 91 78 144 94 39 10 46 17 56 50 18 60 16 61
-67 29z m113 -226 c-12 -35 -8 -65 13 -98 4 -6 -1 -2 -11 8 -26 29 -30 61 -13
96 22 42 26 39 11 -6z m163 -21 c2 -7 -6 -12 -17 -12 -21 0 -27 11 -14 24 9 9
26 2 31 -12z m-335 -687 l46 -135 -208 0 -208 0 -6 44 c-7 46 1 83 26 132 34
66 96 92 224 93 l81 1 45 -135z"/>
<path d="M1873 4932 c9 -9 31 -49 48 -87 65 -138 30 -254 -127 -427 -29 -32
-68 -98 -58 -98 7 0 90 77 174 160 81 80 100 118 100 202 0 97 -23 161 -79
219 -26 27 -53 49 -61 49 -10 0 -9 -4 3 -18z"/>
<path d="M6182 4937 c-112 -83 -152 -237 -92 -358 19 -38 238 -264 247 -255 9
9 -21 60 -67 112 -110 124 -157 226 -147 314 5 45 45 135 83 188 21 28 16 28
-24 -1z"/>
<path d="M1710 3666 c8 -9 65 -48 125 -89 97 -64 116 -82 161 -149 29 -42 54
-82 56 -90 3 -7 8 -10 12 -7 11 10 -34 120 -74 179 -58 87 -146 142 -260 164
-31 6 -33 5 -20 -8z"/>
<path d="M6307 3669 c-60 -14 -135 -56 -178 -101 -44 -46 -123 -195 -117 -224
2 -14 13 -3 36 40 50 87 111 147 228 221 57 37 104 69 104 71 0 6 -30 3 -73
-7z"/>
<path d="M3235 3654 c-169 -35 -315 -141 -379 -278 -44 -92 -56 -153 -56 -281
0 -84 5 -119 25 -182 14 -43 28 -109 32 -148 3 -42 12 -78 22 -89 9 -11 53
-36 97 -57 45 -21 87 -45 93 -53 7 -8 16 -42 21 -76 5 -34 16 -70 24 -79 9
-10 16 -32 16 -49 0 -38 30 -62 78 -62 44 0 72 16 72 40 0 11 5 20 10 20 6 0
10 -9 10 -20 0 -10 9 -24 19 -30 41 -21 118 -3 107 25 -3 8 -1 17 4 20 6 4 14
-5 20 -19 11 -29 46 -41 92 -32 43 8 58 23 58 57 0 16 9 43 20 61 11 19 20 51
20 73 0 57 20 80 105 119 102 47 125 72 125 135 0 28 12 85 26 128 35 104 43
275 20 378 -16 69 -61 175 -74 175 -4 0 -17 -15 -30 -33 -27 -40 -82 -94 -82
-81 0 5 18 44 39 86 35 69 38 78 24 90 -14 11 -26 1 -92 -70 -42 -45 -79 -82
-84 -82 -15 0 46 104 89 150 37 40 42 49 30 59 -11 10 -23 4 -58 -32 -23 -24
-58 -68 -76 -98 -41 -68 -118 -156 -127 -147 -14 13 53 133 120 216 36 45 71
82 76 82 25 0 3 20 -48 43 -125 54 -255 68 -388 41z m-28 -643 c45 -21 63 -45
63 -86 0 -55 -37 -84 -159 -126 -71 -25 -103 -24 -129 4 -67 71 -39 142 82
202 59 30 87 31 143 6z m449 0 c23 -11 61 -36 84 -57 40 -36 42 -41 37 -82 -6
-51 -39 -92 -76 -92 -44 0 -182 53 -212 81 -21 20 -29 36 -29 62 0 86 101 131
196 88z m-250 -262 c8 -16 14 -39 14 -53 0 -23 -3 -25 -55 -25 -52 0 -55 2
-55 25 0 27 14 59 38 86 18 21 35 11 58 -33z"/>
<path d="M4729 3190 l-38 -40 -106 0 c-87 0 -105 -3 -105 -15 0 -12 19 -15
109 -15 100 0 110 -2 116 -20 3 -10 20 -31 38 -46 26 -22 38 -25 71 -21 42 6
86 43 86 73 0 12 28 14 170 14 144 0 170 2 170 15 0 13 -25 15 -169 15 -160 0
-170 1 -176 20 -10 31 -54 60 -93 60 -28 0 -43 -8 -73 -40z m121 -10 c41 -41
12 -120 -45 -120 -39 0 -79 44 -71 78 14 57 78 80 116 42z"/>
<path d="M4622 3058 c-38 -10 -72 -58 -72 -102 0 -21 11 -40 39 -66 30 -29 39
-46 43 -78 l4 -42 -78 0 c-63 0 -78 -3 -78 -15 0 -12 15 -15 78 -15 l77 0 0
-47 c0 -28 5 -48 13 -50 9 -4 12 22 12 104 l0 109 36 17 c40 19 66 70 57 108
-14 57 -74 92 -131 77z m82 -50 c17 -24 21 -65 8 -84 -14 -21 -52 -34 -77 -28
-53 13 -69 79 -29 118 24 24 80 20 98 -6z"/>
<path d="M5113 3063 c-25 -5 -73 -57 -73 -78 0 -11 -25 -15 -115 -17 -151 -4
-153 -22 -2 -26 107 -2 115 -4 126 -26 7 -12 26 -31 42 -40 86 -51 190 61 133
143 -14 19 -76 55 -86 50 -2 -1 -13 -4 -25 -6z m77 -53 c27 -27 25 -66 -5 -95
-30 -30 -54 -31 -89 -4 -50 40 -21 119 44 119 17 0 39 -9 50 -20z"/>
<path d="M4754 2846 c-72 -31 -86 -106 -30 -162 49 -49 87 -47 138 7 l38 40
167 2 c151 2 168 4 171 20 3 16 -10 17 -171 17 l-174 0 -11 24 c-22 48 -81 72
-128 52z m86 -46 c29 -29 26 -74 -6 -99 -35 -27 -59 -26 -89 4 -46 45 -19 115
45 115 17 0 39 -9 50 -20z"/>
<path d="M2445 2221 c58 -61 180 -155 262 -204 57 -33 205 -98 253 -112 22 -6
23 -5 10 8 -19 19 -532 345 -556 353 -11 4 4 -17 31 -45z"/>
<path d="M5529 2192 c-74 -48 -201 -130 -282 -181 -81 -51 -146 -96 -143 -98
15 -15 227 77 325 141 111 72 255 205 239 222 -2 2 -65 -36 -139 -84z"/>
<path d="M1960 1668 c-108 -55 -128 -185 -44 -277 55 -61 122 -85 234 -82 43
1 47 3 58 34 15 41 15 47 2 47 -5 0 -10 -7 -10 -15 0 -8 -13 -21 -30 -30 -92
-47 -210 27 -210 132 0 51 16 87 59 127 24 23 42 30 86 34 47 4 61 1 94 -21
47 -31 70 -80 52 -109 -9 -14 -9 -24 -2 -31 7 -7 12 -5 17 9 4 10 13 35 21 54
8 19 10 36 5 38 -4 1 -32 20 -61 42 -92 69 -193 87 -271 48z m-14 -47 c-15
-16 -34 -46 -41 -67 -8 -23 -14 -31 -15 -19 0 23 35 84 59 102 27 21 26 14 -3
-16z m-49 -153 c-3 -8 -6 -5 -6 6 -1 11 2 17 5 13 3 -3 4 -12 1 -19z"/>
<path d="M5818 1663 c-35 -16 -58 -32 -58 -42 0 -12 3 -12 12 -3 7 7 20 12 30
12 16 0 18 -11 18 -117 l0 -117 -32 29 c-112 100 -137 129 -126 142 6 7 17 13
24 13 8 0 14 5 14 10 0 15 -6 13 -107 -27 -59 -24 -93 -43 -93 -52 0 -12 3
-12 12 -3 23 23 41 12 137 -80 154 -148 180 -172 186 -166 4 3 8 88 11 188 5
182 12 220 39 220 8 0 15 5 15 10 0 15 -19 11 -82 -17z m-18 -341 c0 -6 -151
132 -190 174 -19 21 16 -9 78 -66 61 -57 112 -106 112 -108z"/>
<path d="M5958 1614 c-12 -11 4 -33 38 -55 28 -17 33 -25 28 -45 -3 -13 -3
-35 0 -49 8 -31 36 -33 36 -2 0 12 9 37 20 55 37 61 29 73 -55 85 -16 2 -37 7
-46 11 -8 4 -18 4 -21 0z"/>
<path d="M2340 1560 c0 -5 7 -10 15 -10 9 0 18 -7 21 -15 8 -19 -95 -275 -113
-282 -7 -3 -20 0 -27 6 -9 8 -16 8 -20 2 -4 -5 -2 -12 4 -16 17 -11 274 -107
295 -110 11 -2 46 -13 79 -24 32 -11 63 -18 69 -14 6 4 1 10 -11 14 -29 11
-28 17 12 63 l33 40 45 -13 c44 -13 46 -14 56 -64 12 -59 8 -70 -19 -62 -10 4
-19 2 -19 -4 0 -10 16 -15 123 -42 23 -5 50 -12 60 -15 9 -3 17 -1 17 4 0 5
-9 12 -20 15 -27 7 -35 33 -65 200 -37 205 -31 188 -60 177 -14 -5 -31 -9 -37
-7 -7 1 -15 -14 -18 -34 -7 -39 -139 -219 -168 -230 -10 -4 -24 -3 -33 2 -9 5
-19 5 -23 2 -13 -13 -5 24 9 43 18 24 19 34 1 34 -8 0 -17 -9 -21 -19 -3 -11
-13 -22 -22 -25 -16 -7 -110 19 -127 34 -9 9 79 257 100 279 10 11 16 12 28 2
10 -8 16 -9 21 -1 3 5 -2 13 -12 17 -10 3 -51 19 -91 35 -82 32 -82 32 -82 18z
m457 -252 c-3 -7 -5 -2 -5 12 0 14 2 19 5 13 2 -7 2 -19 0 -25z m-466 -5 c-12
-20 -14 -14 -5 12 4 9 9 14 11 11 3 -2 0 -13 -6 -23z m447 -64 c-3 -25 -5 -25
-36 -15 l-32 11 27 38 c26 37 27 38 36 15 4 -12 7 -34 5 -49z m29 9 c-3 -8 -6
-5 -6 6 -1 11 2 17 5 13 3 -3 4 -12 1 -19z m10 -60 c-3 -8 -6 -5 -6 6 -1 11 2
17 5 13 3 -3 4 -12 1 -19z m10 -50 c-3 -8 -6 -5 -6 6 -1 11 2 17 5 13 3 -3 4
-12 1 -19z m10 -50 c-3 -8 -6 -5 -6 6 -1 11 2 17 5 13 3 -3 4 -12 1 -19z"/>
<path d="M5422 1499 c-24 -10 -81 -30 -128 -45 -82 -25 -110 -45 -58 -41 26 2
28 -3 70 -138 24 -77 44 -146 44 -152 0 -7 -9 -13 -19 -13 -21 0 -37 -15 -24
-23 5 -3 67 15 138 39 72 24 138 43 148 44 16 0 17 6 11 48 -9 65 -18 75 -24
27 -5 -37 -9 -42 -63 -69 -34 -17 -61 -25 -66 -20 -5 5 -19 40 -31 78 -19 57
-20 70 -9 77 22 14 29 11 47 -21 18 -32 38 -41 29 -12 -32 96 -50 142 -58 142
-6 0 -7 -14 -4 -33 7 -35 -17 -70 -34 -51 -9 10 -43 106 -38 110 1 1 19 9 41
18 56 23 84 21 98 -9 6 -14 15 -25 20 -25 6 0 8 3 6 8 -2 4 -10 24 -18 45 -16
42 -19 43 -78 16z m-55 -321 c-3 -8 -6 -5 -6 6 -1 11 2 17 5 13 3 -3 4 -12 1
-19z"/>
<path d="M4744 1369 c-6 -8 -19 -54 -28 -102 -14 -72 -67 -278 -92 -359 -3
-12 0 -18 9 -18 10 0 24 36 45 118 76 284 97 400 66 361z"/>
<path d="M4945 1358 c-49 -10 -107 -22 -128 -26 -40 -7 -49 -29 -10 -24 18 3
23 -4 32 -50 6 -29 20 -96 30 -148 20 -97 16 -128 -16 -116 -7 3 -13 -1 -13
-10 0 -11 5 -14 16 -10 9 4 55 13 103 21 123 22 177 42 221 84 72 69 76 160 9
236 -51 58 -118 70 -244 43z m122 -38 c78 -47 98 -180 36 -241 -30 -31 -103
-63 -114 -51 -4 4 -21 72 -38 151 -24 112 -28 147 -18 153 23 15 101 8 134
-12z m58 -10 c10 -11 16 -20 13 -20 -3 0 -13 9 -23 20 -10 11 -16 20 -13 20 3
0 13 -9 23 -20z m-258 -42 c-3 -8 -6 -5 -6 6 -1 11 2 17 5 13 3 -3 4 -12 1
-19z m291 -13 c-3 -3 -9 2 -12 12 -6 14 -5 15 5 6 7 -7 10 -15 7 -18z m-281
-37 c-3 -8 -6 -5 -6 6 -1 11 2 17 5 13 3 -3 4 -12 1 -19z m300 -45 c-3 -10 -5
-4 -5 12 0 17 2 24 5 18 2 -7 2 -21 0 -30z m-290 -5 c-3 -8 -6 -5 -6 6 -1 11
2 17 5 13 3 -3 4 -12 1 -19z m20 -100 c-3 -7 -5 -2 -5 12 0 14 2 19 5 13 2 -7
2 -19 0 -25z m10 -40 c-3 -8 -6 -5 -6 6 -1 11 2 17 5 13 3 -3 4 -12 1 -19z"/>
<path d="M3077 1320 c-15 -12 -29 -36 -33 -55 -8 -43 9 -72 78 -133 35 -32 48
-51 48 -70 0 -49 -35 -75 -84 -61 -43 12 -66 44 -66 90 0 36 -13 59 -23 41 -3
-4 -6 -34 -8 -67 -1 -42 1 -59 10 -57 6 1 28 -6 49 -17 87 -43 176 -32 206 28
31 60 14 106 -64 171 -62 52 -75 73 -60 100 13 25 71 27 91 4 7 -9 14 -34 14
-55 0 -25 4 -39 12 -39 7 0 13 8 13 18 0 9 3 35 7 56 4 25 3 37 -4 33 -6 -4
-27 3 -49 13 -50 26 -104 26 -137 0z m123 -232 c-3 -2 -34 28 -70 67 l-64 70
69 -67 c38 -37 67 -69 65 -70z"/>
<path d="M3379 1261 c-52 -53 -38 -101 52 -174 31 -25 59 -54 61 -64 13 -47
-36 -90 -87 -77 -45 11 -68 50 -74 127 -1 5 -5 6 -10 3 -5 -3 -9 -35 -9 -70 0
-48 3 -63 13 -60 7 3 30 -2 51 -11 120 -50 235 15 205 115 -11 36 -33 60 -115
123 -41 31 -48 70 -17 87 47 25 93 -6 93 -63 0 -35 11 -56 21 -40 3 5 7 30 8
58 3 39 1 50 -11 50 -8 1 -28 6 -43 13 -52 22 -105 15 -138 -17z m-2 -73 c-3
-7 -5 -2 -5 12 0 14 2 19 5 13 2 -7 2 -19 0 -25z m54 -65 c13 -16 12 -17 -3
-4 -10 7 -18 15 -18 17 0 8 8 3 21 -13z m59 -48 c19 -19 32 -35 29 -35 -3 0
-20 16 -39 35 -19 19 -32 35 -29 35 3 0 20 -16 39 -35z m37 -77 c-3 -8 -6 -5
-6 6 -1 11 2 17 5 13 3 -3 4 -12 1 -19z"/>
<path d="M3630 1250 c0 -5 12 -10 26 -10 l27 0 -7 -132 c-9 -168 -12 -178 -42
-178 -13 0 -24 -4 -24 -10 0 -5 1 -10 3 -10 138 -11 207 -11 207 -2 0 6 -12
12 -27 14 -26 3 -28 6 -27 43 1 22 2 88 4 147 2 111 11 135 44 122 9 -3 16 -2
16 4 0 5 -14 12 -31 16 -50 10 -169 7 -169 -4z m77 -152 c-2 -13 -4 -3 -4 22
0 25 2 35 4 23 2 -13 2 -33 0 -45z m-10 -155 c-3 -10 -5 -2 -5 17 0 19 2 27 5
18 2 -10 2 -26 0 -35z"/>
<path d="M3985 1248 c-82 -30 -135 -96 -135 -171 0 -94 57 -166 147 -186 76
-16 131 -6 200 38 38 23 43 30 43 64 0 20 -4 37 -10 37 -5 0 -10 -11 -10 -24
0 -15 -13 -36 -35 -55 -30 -26 -44 -31 -86 -31 -63 0 -105 23 -130 72 -41 80
-12 191 61 229 79 42 180 3 180 -70 0 -12 5 -21 10 -21 7 0 10 22 8 56 l-3 57
-35 3 c-130 12 -178 12 -205 2z m-88 -108 c-7 -17 -13 -26 -15 -21 -3 10 15
51 22 51 3 0 -1 -14 -7 -30z m-20 -87 c-3 -10 -5 -2 -5 17 0 19 2 27 5 18 2
-10 2 -26 0 -35z m31 -78 c4 -6 -1 -2 -10 8 -10 11 -18 27 -17 36 0 10 4 7 10
-8 5 -14 13 -30 17 -36z"/>
<path d="M4532 1166 c-6 -14 -25 -35 -41 -47 -42 -31 -39 -52 9 -74 22 -10 47
-26 56 -36 9 -10 21 -16 26 -13 12 8 0 44 -23 70 -18 19 -18 23 -4 59 24 55 2
94 -23 41z"/>
<path d="M2980 585 c7 -9 15 -13 17 -11 7 7 -7 26 -19 26 -6 0 -6 -6 2 -15z"/>
</g>
</svg>
